<svg width="32" height="32" viewBox="0 0 32 32" fill="none" xmlns="http://www.w3.org/2000/svg">
<path d="M18.4797 24.8122V27.8007L15.8744 29.3333L13.3456 27.8007V24.8122L15.8744 26.3448L18.4797 24.8122ZM4.53339 14.4674L7.06212 16V21.1341L11.4299 23.7394V26.7279L4.53339 22.6666V14.4674ZM27.2154 14.4674V22.6666L20.2422 26.7279V23.7394L24.61 21.1341V16L27.2154 14.4674ZM20.2422 10.4061L22.8476 11.9387V14.9272L18.4797 17.5325V22.7433L15.951 24.2758L13.4223 22.7433V17.5325L8.9012 14.9272V11.9387L11.5066 10.4061L15.8744 13.0115L20.2422 10.4061ZM8.9012 17.0728L11.4299 18.6053V21.5938L8.9012 20.0613V17.0728ZM22.8476 17.0728V20.0613L20.3188 21.5938V18.6053L22.8476 17.0728ZM7.06212 7.80073L9.66749 9.33329L7.06212 10.8659V13.8544L4.53339 12.3218V9.33329L7.06212 7.80073ZM24.6866 7.80073L27.292 9.33329V12.3218L24.6866 13.8544V10.8659L22.1579 9.33329L24.6866 7.80073ZM15.8744 7.80073L18.4797 9.33329L15.8744 10.8659L13.3456 9.33329L15.8744 7.80073ZM15.8744 2.66663L22.8476 6.72793L20.3188 8.2605L15.951 5.65513L11.5066 8.2605L8.97783 6.72793L15.8744 2.66663Z" fill="#F3BA2F"/>
</svg>
