<svg width="199" height="40" viewBox="0 0 199 40" fill="none" xmlns="http://www.w3.org/2000/svg">
<path d="M9.03515 20L4.51385 24.5174L-0.00354004 20L4.51385 15.4826L9.03515 20ZM19.9965 9.03087L27.7378 16.7761L32.2552 12.2587L19.9965 0L7.73777 12.2587L12.2552 16.7761L19.9965 9.03087ZM35.483 15.4826L30.9656 20L35.483 24.5174L39.9965 20L35.483 15.4826ZM19.9965 30.9691L12.2552 23.2278L7.73777 27.7413L19.9965 40L32.2552 27.7413L27.7378 23.2278L19.9965 30.9691ZM19.9965 24.5174L24.5139 20L19.9965 15.4826L15.4791 20L19.9965 24.5174ZM67.6713 24.9512V24.8886C67.6713 21.9422 66.1082 20.4689 63.5643 19.4998C65.1274 18.6206 66.4482 17.2411 66.4482 14.7675V14.705C66.4482 11.2583 63.6893 9.03087 59.2071 9.03087H49.0312V30.9691H59.465C64.4162 30.9691 67.6792 28.9644 67.6792 24.9512H67.6713ZM61.6534 15.5725C61.6534 17.202 60.3052 17.8937 58.1754 17.8937H53.7323V13.263H58.4959C60.5318 13.263 61.6612 14.0758 61.6612 15.5178L61.6534 15.5725ZM62.8765 24.3494C62.8765 25.9789 61.5908 26.7292 59.4572 26.7292H53.7323V21.9109H59.3087C61.7862 21.9109 62.8843 22.8214 62.8843 24.2946L62.8765 24.3494ZM77.812 30.9691V9.03087H72.9703V30.9691H77.812ZM103.756 30.9691V9.03087H98.9765V22.5401L88.6991 9.03087H84.2481V30.9691H89.0117V17.0223L99.633 30.9691H103.756ZM130.489 30.9691L121.071 8.87456H116.62L107.222 30.9691H112.142L114.154 26.0492H123.431L125.436 30.9691H130.489ZM121.716 21.7859H115.87L118.785 14.6737L121.716 21.7859ZM153.494 30.9691V9.03087H148.715V22.5401L138.433 9.03087H133.986V30.9691H138.746V17.0223L149.371 30.9691H153.494ZM178.406 27.4287L175.338 24.3259C173.615 25.889 172.079 26.8933 169.571 26.8933C165.811 26.8933 163.209 23.7671 163.209 20V19.9375C163.209 16.1782 165.874 13.1067 169.571 13.1067C171.763 13.1067 173.478 14.0445 175.182 15.5803L178.242 12.0399C176.206 10.0352 173.732 8.65572 169.594 8.65572C162.857 8.65572 158.156 13.7632 158.156 19.9883V20.0508C158.156 26.3501 162.951 31.3326 169.406 31.3326C173.631 31.3443 176.136 29.8398 178.39 27.4287H178.406ZM199 30.9691V26.6706H187.073V22.0555H197.417V17.7569H187.073V13.3255H198.828V9.02696H182.279V30.9652L199 30.9691Z" fill="#222222"/>
</svg>
