<svg width="426" height="425" viewBox="0 0 426 425" fill="none" xmlns="http://www.w3.org/2000/svg">
<mask id="path-1-inside-1_30_192" fill="white">
<path d="M363.029 212.934C362.821 251.093 348.079 287.739 321.806 315.413L213 212.114L363.029 212.934Z"/>
</mask>
<path d="M363.029 212.934C362.821 251.093 348.079 287.739 321.806 315.413L213 212.114L363.029 212.934Z" fill="#BABABA" stroke="black" stroke-width="2.50052" mask="url(#path-1-inside-1_30_192)"/>
<path d="M293.077 260.583C293.103 260.84 293.145 261.139 293.2 261.408C293.135 261.554 293.051 261.587 292.95 261.577C292.82 261.554 292.69 261.532 292.573 261.48C292.238 261.366 291.93 261.194 291.608 261.051L287.661 259.295C287.586 259.227 287.54 259.172 287.459 258.961C287.787 258.616 288.255 258.509 288.704 257.973C289.026 257.486 289.289 256.973 289.494 256.433C289.637 256.112 289.78 255.79 289.923 255.468L290.797 253.581C290.94 253.259 291.083 252.937 291.226 252.616C291.304 252.44 291.369 252.294 291.447 252.119L291.847 251.141C291.925 250.965 292.003 250.79 292.068 250.644C292.133 250.498 292.198 250.351 292.263 250.205L292.682 249.341C292.747 249.195 292.812 249.049 292.877 248.902C293.397 247.733 293.931 246.534 294.464 245.335C294.503 245.247 294.542 245.16 294.509 245.075L294.421 245.036C294.051 245.082 293.749 245.052 293.43 244.981C292.94 244.903 292.498 244.636 292.193 244.22C291.832 243.85 291.582 243.388 291.429 242.865C291.238 242.115 291.423 241.462 291.898 240.867C291.992 240.734 292.148 240.698 292.278 240.721L292.681 241.075C292.84 241.111 293.028 241.16 293.204 241.238C293.889 241.508 295.293 241.186 295.871 240.673L296.586 240.01L296.856 239.64C296.895 239.552 296.963 239.477 297.031 239.403C297.187 239.367 297.389 239.387 297.564 239.465C297.915 239.621 298.237 239.764 298.588 239.92C299.127 240.124 299.683 240.371 300.196 240.635C300.388 240.755 300.634 240.83 300.839 240.921C300.898 240.947 300.927 240.96 300.943 241.002L301.206 241.119C301.222 241.161 301.281 241.187 301.297 241.23L301.287 241.33C301.274 241.36 301.274 241.36 301.261 241.389C300.962 242.061 300.676 242.705 300.319 243.351C300.026 243.851 299.822 244.391 299.575 244.946C299.002 246.233 298.43 247.519 297.845 248.835C297.52 249.566 297.254 250.323 296.87 251.028C296.857 251.057 296.844 251.087 296.831 251.116L296.782 251.304C296.769 251.333 296.756 251.363 296.743 251.392C296.656 251.668 296.539 251.931 296.392 252.181C296.194 252.549 295.996 252.916 295.856 253.309C295.729 253.673 295.544 254.01 295.388 254.361C295.216 254.67 295.102 255.005 294.988 255.339C294.926 255.557 294.822 255.791 294.731 255.996C294.354 256.843 293.99 257.662 293.613 258.51C293.574 258.598 293.535 258.686 293.496 258.773L293.278 259.342C293.239 259.43 293.2 259.517 293.161 259.605C293.061 259.91 293.018 260.242 293.077 260.583ZM304.113 261.743C304.002 261.834 303.863 261.912 303.814 262.1C304.213 262.383 304.665 262.549 305.156 262.627C305.792 262.77 306.439 262.812 307.079 262.712C307.209 262.735 307.323 262.715 307.423 262.725C307.599 262.803 307.618 262.917 307.625 263.06C307.44 263.398 307.258 263.807 307.059 264.174C306.741 264.733 306.481 265.318 306.321 265.912C306.286 266.071 306.221 266.218 306.156 266.364C306.055 266.669 305.954 266.975 305.853 267.28L305.671 267.374C305.061 267.173 304.476 266.913 303.946 266.607C303.742 266.516 303.537 266.425 303.332 266.334C303.098 266.23 302.835 266.113 302.585 265.967C302.276 265.794 301.925 265.638 301.562 265.512C301.11 265.346 300.629 265.167 300.174 264.93C299.411 264.52 298.605 264.127 297.773 263.792C297.218 263.545 296.633 263.285 296.078 263.038C295.961 262.986 295.87 262.876 295.863 262.733C295.87 262.56 295.935 262.414 296.087 262.307C296.295 262.154 296.503 262.002 296.711 261.849C297.488 261.284 298.294 260.732 298.996 260.098C299.506 259.66 300.032 259.263 300.575 258.909C300.897 258.737 301.186 258.48 301.462 258.253C301.504 258.237 301.517 258.208 301.517 258.208L301.67 258.1C301.683 258.071 301.712 258.084 301.725 258.055C302.57 257.415 303.386 256.762 304.202 256.109C304.77 255.697 305.323 255.242 305.859 254.745C306.395 254.248 306.948 253.793 307.471 253.325C307.718 253.085 307.922 252.861 308.124 252.565C308.257 252.344 308.42 252.136 308.582 251.928C309.011 251.279 309.132 250.457 308.911 249.693C308.7 249.144 308.047 248.643 307.546 248.351C307.127 248.27 306.679 248.175 306.247 248.123C305.47 248.058 304.499 248.432 304.161 249.192C304.079 249.296 304.027 249.413 303.975 249.53L303.764 249.611C303.719 249.556 303.631 249.517 303.543 249.478C302.988 248.915 302.5 248.279 302.634 247.427L302.65 247.154C302.663 247.125 302.689 247.067 302.673 247.024C302.683 246.609 302.823 246.215 303.05 245.861C303.265 245.536 303.538 245.238 303.797 244.968C304.087 244.711 304.408 244.539 304.776 244.422C305.113 244.292 305.438 244.192 305.763 244.091C306.481 243.815 308.259 244.15 308.996 244.303C309.214 244.365 309.461 244.439 309.665 244.53C310.835 245.05 311.758 245.811 312.7 246.685C312.982 246.916 313.197 247.221 313.369 247.543L313.45 247.754C313.479 247.767 313.496 247.809 313.512 247.852C314.009 248.703 314.203 249.84 314.047 250.821C314.021 250.88 314.025 250.951 313.986 251.039L313.917 251.429C313.878 251.517 313.882 251.588 313.855 251.647C313.638 252.53 313.303 253.362 312.835 254.1C312.461 254.704 312.042 255.253 311.519 255.721C310.872 256.309 310.242 256.939 309.608 257.498C309.072 257.995 308.311 258.602 307.684 258.989C307.379 259.203 307.089 259.46 306.784 259.674L305.013 261.058C304.707 261.272 304.418 261.529 304.113 261.743ZM321.492 259.07C320.42 259.749 318.987 260.057 317.817 259.537C316.765 259.069 316.225 258.234 315.777 257.194C315.709 256.954 315.641 256.713 315.602 256.486C315.501 256.161 315.485 255.803 315.527 255.472C315.553 255.098 315.579 254.725 315.635 254.364C315.628 254.221 315.68 254.104 315.703 253.974C315.947 253.347 316.207 252.762 316.525 252.203C316.659 251.983 316.821 251.775 317.013 251.58C318.023 250.488 318.722 249.783 320.321 249.654C321.091 249.576 321.903 249.797 322.54 250.255C322.894 250.483 323.193 250.756 323.436 251.074C323.959 251.867 324.245 252.799 324.245 253.745C324.216 254.047 324.186 254.349 324.157 254.651C324.128 255.269 323.955 255.893 323.666 256.464C323.263 257.371 323.023 257.754 322.308 258.417C322.077 258.699 321.814 258.898 321.492 259.07ZM322.385 264.229C322.069 264.545 321.783 264.873 321.452 265.146C320.464 266.107 319.476 267.069 318.488 268.03C317.776 268.764 317.049 269.456 316.308 270.177C316.018 270.434 315.775 270.746 315.589 271.084C315.485 271.318 315.365 271.509 315.186 271.675C315.06 271.724 314.917 271.73 314.8 271.678C314.553 271.604 314.348 271.513 314.127 271.379C313.497 271.064 312.811 270.794 312.168 270.508C312.009 270.472 311.863 270.407 311.759 270.326C311.655 270.245 311.564 270.134 311.626 269.917C311.957 269.644 312.272 269.329 312.649 269.111C312.916 268.984 313.15 268.773 313.354 268.549C313.943 267.935 314.534 267.393 315.139 266.821L316.263 265.71C316.949 265.034 317.634 264.359 318.307 263.712C318.499 263.517 318.69 263.322 318.911 263.14L320.062 261.971C320.858 261.204 321.641 260.467 322.437 259.7C322.821 259.31 323.204 258.921 323.588 258.531C324.137 258.005 324.715 257.491 325.235 256.952C325.785 256.426 326.304 255.886 326.841 255.389C327.114 255.091 327.403 254.834 327.663 254.564C328.102 254.129 328.102 254.129 328.306 253.59C328.375 253.515 328.459 253.483 328.547 253.522C328.69 253.515 328.836 253.58 328.995 253.616C329.681 253.886 330.353 254.185 331 254.542C331.221 254.675 331.442 254.809 331.692 254.955C331.779 254.994 331.796 255.036 331.877 255.247C331.864 255.277 331.851 255.306 331.851 255.306C331.289 255.546 330.863 255.952 330.466 256.371C329.479 257.333 328.504 258.265 327.558 259.211C326.775 259.948 326.034 260.669 325.293 261.39C324.334 262.365 323.359 263.297 322.385 264.229ZM319.303 253.754C318.991 254.14 318.812 254.621 318.793 255.138C318.78 255.482 318.903 255.992 319.254 256.148C319.575 256.291 320.053 256.084 320.3 255.843C320.521 255.661 320.71 255.395 320.797 255.119C320.97 254.81 321.025 254.449 321.038 254.105C321.035 253.718 320.82 253.413 320.499 253.27C320.164 253.156 319.81 253.244 319.576 253.455C319.563 253.484 319.521 253.5 319.508 253.53L319.371 253.679C319.358 253.708 319.316 253.725 319.303 253.754ZM328.073 269.631C328.05 270.706 327.679 271.697 327.179 272.665C327.101 272.84 326.964 272.99 326.828 273.139C326.395 273.718 325.807 274.332 325.148 274.634C324.001 275.244 322.909 275.494 321.652 274.935C320.131 274.259 319.261 272.436 319.375 270.841C319.417 270.509 319.43 270.165 319.485 269.804C319.508 269.674 319.531 269.544 319.583 269.428C319.684 269.122 319.814 268.83 319.918 268.596C320.009 268.391 320.103 268.258 320.155 268.141C320.334 267.66 320.629 267.231 320.987 266.9C321.946 265.925 322.479 265.357 323.944 265.133C324.811 264.993 325.695 265.211 326.449 265.722C326.774 265.936 327.043 266.196 327.287 266.515C327.855 267.363 328.187 268.35 328.089 269.358C328.079 269.458 328.053 269.517 328.073 269.631ZM324.193 271.267C324.645 270.803 324.918 270.189 324.902 269.516C324.908 269.344 324.843 269.175 324.736 269.022C324.72 268.98 324.691 268.967 324.661 268.954L324.496 268.775C324.466 268.762 324.45 268.72 324.421 268.707C324.232 268.658 324.031 268.639 323.833 268.691C323.706 268.739 323.579 268.788 323.469 268.879C322.975 269.36 322.656 269.919 322.647 270.65C322.65 271.036 322.767 271.404 323.176 271.586C323.582 271.696 323.904 271.524 324.193 271.267Z" fill="black"/>
<mask id="path-3-inside-2_30_192" fill="white">
<path d="M223.204 62.4305C261.276 65.0259 296.928 82.031 322.904 109.985C348.88 137.939 363.229 174.74 363.029 212.9L213 212.114L223.204 62.4305Z"/>
</mask>
<path d="M223.204 62.4305C261.276 65.0259 296.928 82.031 322.904 109.985C348.88 137.939 363.229 174.74 363.029 212.9L213 212.114L223.204 62.4305Z" fill="#454545" stroke="black" stroke-width="2.50052" mask="url(#path-3-inside-2_30_192)"/>
<path d="M269.466 174.106C269.355 174.197 269.216 174.275 269.167 174.464C269.566 174.746 270.018 174.912 270.509 174.99C271.145 175.133 271.792 175.176 272.432 175.075C272.562 175.098 272.676 175.078 272.777 175.088C272.952 175.166 272.971 175.28 272.978 175.423C272.793 175.761 272.611 176.17 272.412 176.537C272.094 177.096 271.834 177.681 271.675 178.275C271.639 178.434 271.574 178.581 271.509 178.727C271.408 179.032 271.307 179.338 271.206 179.643L271.024 179.737C270.414 179.536 269.829 179.276 269.299 178.97C269.095 178.879 268.89 178.788 268.685 178.697C268.451 178.593 268.188 178.476 267.938 178.33C267.629 178.157 267.279 178.001 266.915 177.875C266.463 177.709 265.982 177.53 265.527 177.293C264.764 176.883 263.958 176.49 263.126 176.155C262.571 175.908 261.986 175.648 261.431 175.401C261.314 175.349 261.223 175.239 261.216 175.096C261.223 174.923 261.288 174.777 261.44 174.67C261.648 174.517 261.856 174.365 262.064 174.212C262.841 173.647 263.647 173.095 264.349 172.461C264.859 172.023 265.385 171.626 265.928 171.272C266.25 171.1 266.539 170.844 266.815 170.616C266.857 170.6 266.87 170.571 266.87 170.571L267.023 170.463C267.036 170.434 267.065 170.447 267.078 170.418C267.923 169.778 268.739 169.125 269.555 168.472C270.123 168.06 270.676 167.605 271.212 167.108C271.748 166.611 272.301 166.156 272.824 165.688C273.071 165.448 273.275 165.224 273.477 164.928C273.61 164.707 273.773 164.499 273.935 164.291C274.364 163.642 274.485 162.82 274.264 162.056C274.053 161.507 273.4 161.007 272.899 160.714C272.48 160.633 272.032 160.538 271.6 160.486C270.823 160.421 269.852 160.795 269.514 161.555C269.432 161.659 269.38 161.776 269.328 161.893L269.117 161.974C269.072 161.919 268.984 161.88 268.896 161.841C268.341 161.279 267.854 160.642 267.987 159.79L268.003 159.517C268.016 159.488 268.042 159.43 268.026 159.387C268.036 158.972 268.176 158.578 268.403 158.224C268.618 157.899 268.891 157.601 269.151 157.331C269.44 157.074 269.761 156.902 270.129 156.785C270.467 156.655 270.791 156.555 271.116 156.454C271.835 156.178 273.612 156.513 274.349 156.666C274.567 156.728 274.814 156.802 275.018 156.893C276.188 157.414 277.111 158.174 278.053 159.048C278.335 159.279 278.55 159.584 278.722 159.906L278.803 160.117C278.832 160.13 278.849 160.172 278.865 160.215C279.362 161.066 279.557 162.203 279.4 163.185C279.374 163.243 279.378 163.314 279.339 163.402L279.27 163.792C279.231 163.88 279.235 163.951 279.209 164.01C278.991 164.893 278.656 165.725 278.188 166.463C277.814 167.067 277.395 167.616 276.872 168.084C276.225 168.672 275.595 169.302 274.961 169.861C274.425 170.358 273.664 170.965 273.037 171.352C272.732 171.566 272.442 171.823 272.137 172.037L270.366 173.421C270.061 173.635 269.771 173.892 269.466 174.106ZM285.671 182.888C285.437 183.414 285.274 183.937 285.141 184.473C285.186 184.844 285.248 185.256 285.31 185.669C285.274 185.828 285.147 185.877 284.988 185.841C284.858 185.818 284.741 185.766 284.624 185.714C284.332 185.584 284.039 185.454 283.747 185.324C282.489 184.765 281.232 184.206 279.975 183.647C279.842 183.553 279.751 183.442 279.787 183.283C280.089 182.997 280.54 182.848 280.95 182.4C281.369 181.851 281.678 181.077 281.987 180.304C281.996 180.203 281.906 180.093 281.818 180.054C279.462 178.972 277.078 177.876 274.709 176.823L274.622 176.469C275.08 175.517 275.525 174.594 275.954 173.629C276.175 173.447 276.396 173.266 276.617 173.084L279.061 171.053C279.571 170.615 280.124 170.16 280.647 169.692C281.089 169.328 281.531 168.965 281.943 168.588C282.083 168.51 282.207 168.39 282.359 168.282C283.162 167.659 283.948 166.993 284.706 166.314C284.816 166.223 284.926 166.132 285.024 166.07C285.287 165.872 285.55 165.674 285.784 165.463C285.84 165.417 285.895 165.372 285.95 165.326L286.353 165.05C286.408 165.005 286.464 164.959 286.519 164.914C286.616 164.852 286.685 164.777 286.795 164.687L287.321 164.29C287.432 164.199 287.529 164.138 287.598 164.063C287.653 164.017 287.708 163.972 287.75 163.956L288.053 163.67C288.095 163.654 288.15 163.608 288.205 163.563C288.218 163.533 288.261 163.517 288.261 163.517L288.384 163.397C288.397 163.368 288.426 163.381 288.439 163.351C288.569 163.374 288.67 163.384 288.771 163.394C289.456 163.664 290.171 163.946 290.843 164.245C291.295 164.411 291.763 164.619 292.218 164.856C292.276 164.882 292.364 164.921 292.422 164.948L292.819 165.159C292.877 165.185 292.965 165.224 293.023 165.25C293.111 165.289 293.157 165.344 293.202 165.399C293.283 165.61 291.323 170.097 291.063 170.682C290.361 172.261 289.659 173.84 288.957 175.419C288.866 175.623 288.775 175.828 288.684 176.033L288.167 177.274C288.076 177.479 287.985 177.683 287.894 177.888L285.671 182.888ZM283.67 176.36C283.713 176.344 283.768 176.298 283.794 176.24C284.633 174.511 285.37 172.773 286.151 171.019C286.203 170.902 286.255 170.785 286.303 170.597C286.219 170.629 286.118 170.619 286.105 170.649C285.621 171.029 285.179 171.392 284.724 171.785L284.048 172.36C283.551 172.77 283.099 173.234 282.615 173.614C282.076 174.04 281.64 174.547 281.055 174.917C281.055 174.917 281.042 174.946 281 174.962C280.961 175.05 280.906 175.096 280.984 175.235C281.143 175.271 281.289 175.336 281.435 175.401C281.906 175.681 282.4 175.83 282.855 176.067C283.06 176.158 283.251 176.279 283.469 176.34C283.527 176.366 283.599 176.363 283.67 176.36ZM300.608 177.553C299.536 178.232 298.103 178.54 296.933 178.02C295.881 177.552 295.342 176.717 294.893 175.677C294.825 175.437 294.757 175.196 294.718 174.969C294.617 174.644 294.601 174.286 294.643 173.955C294.67 173.581 294.696 173.208 294.751 172.847C294.744 172.704 294.796 172.587 294.819 172.457C295.063 171.83 295.323 171.245 295.642 170.687C295.775 170.466 295.937 170.258 296.129 170.063C297.14 168.971 297.838 168.266 299.437 168.137C300.207 168.059 301.019 168.28 301.656 168.738C302.01 168.966 302.309 169.239 302.553 169.557C303.076 170.35 303.361 171.283 303.361 172.228C303.332 172.53 303.303 172.832 303.273 173.134C303.244 173.752 303.072 174.376 302.782 174.947C302.379 175.854 302.139 176.237 301.424 176.9C301.193 177.183 300.93 177.381 300.608 177.553ZM301.501 182.713C301.186 183.028 300.9 183.356 300.568 183.629C299.58 184.59 298.592 185.552 297.604 186.513C296.893 187.247 296.165 187.939 295.424 188.661C295.135 188.917 294.891 189.229 294.706 189.567C294.602 189.801 294.481 189.993 294.303 190.158C294.176 190.207 294.033 190.213 293.916 190.161C293.669 190.087 293.464 189.996 293.243 189.862C292.613 189.547 291.928 189.277 291.284 188.991C291.125 188.955 290.979 188.89 290.875 188.809C290.771 188.728 290.68 188.617 290.742 188.4C291.073 188.127 291.389 187.812 291.766 187.594C292.032 187.468 292.266 187.256 292.471 187.032C293.059 186.418 293.65 185.876 294.255 185.304L295.379 184.193C296.065 183.517 296.751 182.842 297.423 182.195C297.615 182 297.807 181.805 298.028 181.623L299.178 180.454C299.974 179.687 300.757 178.95 301.554 178.183C301.937 177.793 302.32 177.404 302.704 177.014C303.253 176.488 303.832 175.974 304.352 175.435C304.901 174.909 305.421 174.37 305.957 173.873C306.23 173.574 306.519 173.317 306.779 173.047C307.218 172.612 307.218 172.612 307.423 172.073C307.491 171.998 307.575 171.966 307.663 172.005C307.806 171.998 307.952 172.063 308.111 172.099C308.797 172.369 309.469 172.668 310.116 173.025C310.337 173.159 310.558 173.292 310.808 173.438C310.896 173.477 310.912 173.519 310.993 173.731C310.98 173.76 310.967 173.789 310.967 173.789C310.405 174.029 309.979 174.435 309.583 174.854C308.595 175.816 307.62 176.748 306.674 177.694C305.891 178.431 305.15 179.152 304.409 179.873C303.451 180.848 302.476 181.78 301.501 182.713ZM298.419 172.237C298.107 172.623 297.928 173.104 297.909 173.621C297.896 173.965 298.019 174.475 298.37 174.631C298.692 174.774 299.169 174.567 299.416 174.326C299.637 174.144 299.826 173.878 299.914 173.602C300.086 173.293 300.141 172.932 300.154 172.588C300.151 172.201 299.937 171.896 299.615 171.753C299.28 171.639 298.926 171.727 298.692 171.938C298.679 171.967 298.637 171.983 298.624 172.013L298.487 172.162C298.474 172.191 298.432 172.208 298.419 172.237ZM307.189 188.114C307.166 189.189 306.795 190.18 306.295 191.148C306.217 191.324 306.08 191.473 305.944 191.622C305.512 192.201 304.923 192.815 304.264 193.117C303.117 193.727 302.025 193.977 300.768 193.418C299.247 192.742 298.377 190.919 298.491 189.324C298.533 188.993 298.546 188.648 298.602 188.287C298.624 188.158 298.647 188.028 298.699 187.911C298.8 187.605 298.93 187.313 299.034 187.079C299.125 186.874 299.219 186.741 299.271 186.624C299.45 186.143 299.746 185.714 300.103 185.383C301.062 184.409 301.595 183.84 303.06 183.616C303.928 183.477 304.811 183.694 305.565 184.205C305.89 184.419 306.16 184.679 306.403 184.998C306.972 185.846 307.303 186.833 307.205 187.841C307.195 187.941 307.169 188 307.189 188.114ZM303.309 189.75C303.761 189.286 304.034 188.672 304.018 187.999C304.024 187.827 303.959 187.658 303.852 187.505C303.836 187.463 303.807 187.45 303.777 187.437L303.612 187.258C303.583 187.245 303.566 187.203 303.537 187.19C303.349 187.141 303.147 187.122 302.949 187.174C302.822 187.223 302.696 187.271 302.585 187.362C302.091 187.843 301.773 188.402 301.763 189.133C301.766 189.519 301.883 189.887 302.292 190.069C302.698 190.179 303.02 190.007 303.309 189.75Z" fill="white"/>
<mask id="path-5-inside-3_30_192" fill="white">
<path d="M202.438 361.773C182.785 360.386 163.597 355.141 145.97 346.339C128.343 337.537 112.623 325.348 99.7068 310.47C86.7905 295.593 76.9311 278.316 70.6914 259.628C64.4518 240.94 61.9542 221.206 63.3412 201.552C64.7282 181.899 69.9727 162.711 78.7752 145.084C87.5777 127.458 99.7658 111.737 114.644 98.821C129.522 85.9046 146.798 76.0452 165.486 69.8056C184.174 63.5659 203.909 61.0683 223.562 62.4554L213 212.114L202.438 361.773Z"/>
</mask>
<path d="M202.438 361.773C182.785 360.386 163.597 355.141 145.97 346.339C128.343 337.537 112.623 325.348 99.7068 310.47C86.7905 295.593 76.9311 278.316 70.6914 259.628C64.4518 240.94 61.9542 221.206 63.3412 201.552C64.7282 181.899 69.9727 162.711 78.7752 145.084C87.5777 127.458 99.7658 111.737 114.644 98.821C129.522 85.9046 146.798 76.0452 165.486 69.8056C184.174 63.5659 203.909 61.0683 223.562 62.4554L213 212.114L202.438 361.773Z" fill="#141414" stroke="black" stroke-width="2.50052" mask="url(#path-5-inside-3_30_192)"/>
<path d="M125.489 211.882C125.619 211.905 125.736 211.957 125.798 212.055C125.801 212.126 125.804 212.198 125.778 212.256C125.265 213.569 126.353 214.823 127.493 215.33C128.195 215.642 128.842 215.684 129.592 215.493C129.635 215.477 129.706 215.473 129.761 215.428L130.044 215.343C130.128 215.311 130.171 215.295 130.213 215.279C130.379 215.142 130.531 215.035 130.684 214.928C131.435 214.421 131.861 213.7 132.182 212.897C132.608 211.861 132.777 209.905 131.588 209.271C131.322 209.083 131 208.94 130.695 208.839C130.214 208.66 129.685 208.67 129.207 208.878C129.005 208.858 128.788 208.796 128.596 208.676C128.128 208.468 127.673 208.231 127.189 207.98C127.001 207.932 126.851 207.795 126.744 207.642C126.751 207.47 126.829 207.295 126.923 207.162C127.199 206.619 127.476 206.077 127.752 205.534C127.791 205.446 127.788 205.375 127.843 205.329C128.649 203.832 129.322 202.24 130.053 200.674C130.092 200.586 130.131 200.498 130.17 200.411L130.42 199.927C130.524 199.693 130.641 199.429 130.775 199.209L131.178 198.302C131.324 198.052 131.496 197.743 131.613 197.48C131.714 197.49 131.844 197.513 131.932 197.552C132.484 197.727 133.01 197.961 133.481 198.241C133.673 198.361 133.878 198.452 134.095 198.514C134.999 198.845 135.905 199.248 136.811 199.652C137.25 199.847 137.705 200.084 138.186 200.263C139.047 200.61 139.937 200.971 140.785 201.348C140.944 201.384 141.106 201.491 141.184 201.631C141.236 201.829 141.129 201.992 141.035 202.125C140.82 202.45 140.606 202.775 140.421 203.112C140.099 203.6 139.865 204.126 139.673 204.636C139.533 205.029 139.393 205.422 139.254 205.816C139.202 205.932 139.062 206.01 138.919 206.017C138.789 205.994 138.698 205.884 138.636 205.786C138.402 205.367 138.032 205.097 137.73 204.753C137.314 204.428 136.882 204.061 136.398 203.81C135.843 203.563 135.313 203.258 134.77 202.981C134.39 202.812 134.01 202.643 133.659 202.487C133.546 202.507 133.406 202.585 133.354 202.702C133.302 202.819 133.237 202.965 133.172 203.111C132.853 203.67 132.577 204.212 132.288 204.784C132.207 204.888 132.171 205.047 132.219 205.174C132.265 205.229 132.353 205.268 132.411 205.294C132.587 205.372 132.762 205.45 132.95 205.499C133.662 205.711 134.253 206.114 134.831 206.546C137.177 208.359 137.3 212.021 136.399 214.597C136.321 214.773 136.256 214.919 136.191 215.065C136.032 215.345 135.886 215.595 135.756 215.887C134.751 217.752 133.136 219.1 131.086 219.694C130.875 219.775 130.706 219.84 130.521 219.863C130.154 219.98 129.825 220.009 129.481 219.996C129.267 220.006 129.036 219.973 128.808 220.012C128.081 220.074 127.382 219.833 126.687 219.664C126.658 219.651 126.628 219.638 126.57 219.612C126.083 219.29 125.501 219.102 125.027 218.751C124.981 218.696 124.894 218.657 124.848 218.601L124.448 218.319C124.374 218.25 124.315 218.224 124.241 218.156C123.916 217.942 123.659 217.652 123.471 217.288C123.286 216.996 123.1 216.704 122.957 216.395C122.724 215.976 122.587 215.495 122.623 215.02C122.62 214.634 122.675 214.273 122.743 213.883C122.766 213.753 122.818 213.636 122.899 213.532C123.124 213.107 123.423 212.749 123.751 212.405C123.917 212.269 124.069 212.161 124.268 212.11C124.648 211.963 125.073 211.872 125.489 211.882ZM139.413 225.078C137.607 223.784 136.87 221.11 137.377 219.024C137.536 218.115 137.826 217.228 138.219 216.422C138.443 215.996 138.609 215.545 138.746 215.08C138.785 214.993 138.824 214.905 138.863 214.817C139.552 213.583 140.078 212.241 140.663 210.925C140.979 210.295 141.265 209.651 141.521 208.995C141.833 208.293 142.233 207.631 142.724 207.078C142.779 207.033 142.792 207.004 142.805 206.974C143.387 206.218 144.121 205.669 144.934 205.259C146.441 204.389 148.635 204.418 150.184 205.108C151.091 205.511 151.792 205.823 152.484 206.551L152.874 206.934C153.816 207.808 154.339 209.547 154.452 210.788C154.462 211.948 154.156 213.108 153.835 214.225L151.962 218.436C151.491 219.732 150.857 220.921 150.327 222.191C150.184 222.513 149.983 222.809 149.781 223.104C148.517 225.239 146.424 227.11 143.747 226.83C143.416 226.788 143.126 226.729 142.824 226.7C142.048 226.635 141.346 226.323 140.657 225.981C140.202 225.744 139.774 225.448 139.413 225.078ZM142.471 221.745C142.825 221.972 143.205 222.141 143.611 222.252C143.784 222.258 143.969 222.236 144.112 222.229C144.485 222.255 144.853 222.138 145.171 221.895C145.421 221.726 145.626 221.502 145.831 221.278C146.074 220.966 146.302 220.612 146.442 220.218C147.186 218.623 147.914 216.986 148.629 215.378C148.954 214.647 149.25 213.903 149.617 213.156C149.825 212.688 149.946 212.181 150.008 211.648C149.995 211.047 149.969 210.475 149.462 210.04C149.433 210.027 149.446 209.997 149.417 209.984L149.309 209.832C149.309 209.832 149.293 209.789 149.264 209.776C149.16 209.695 149.056 209.614 148.952 209.533C148.526 209.308 148.088 209.113 147.591 209.207C147.159 209.155 146.808 209.315 146.489 209.558C145.726 210.094 145.306 210.958 144.942 211.777C144.474 212.83 143.993 213.912 143.525 214.964C143.395 215.257 143.265 215.549 143.148 215.812L142.397 217.579C142.28 217.843 142.15 218.135 142.02 218.427C141.864 218.778 141.766 219.155 141.682 219.503C141.64 219.834 141.64 220.149 141.711 220.461C141.769 220.802 141.912 221.111 142.123 221.345C142.153 221.358 142.198 221.413 142.214 221.456L142.38 221.634C142.426 221.69 142.455 221.703 142.471 221.745ZM162.383 220.058C161.311 220.737 159.878 221.045 158.708 220.525C157.656 220.057 157.117 219.222 156.668 218.182C156.6 217.942 156.532 217.701 156.493 217.474C156.392 217.149 156.376 216.791 156.418 216.46C156.445 216.086 156.471 215.713 156.526 215.352C156.519 215.209 156.571 215.092 156.594 214.962C156.838 214.335 157.098 213.75 157.417 213.191C157.55 212.971 157.712 212.763 157.904 212.568C158.915 211.476 159.613 210.771 161.212 210.642C161.982 210.564 162.794 210.785 163.431 211.243C163.785 211.471 164.084 211.744 164.328 212.062C164.851 212.855 165.136 213.787 165.136 214.733C165.107 215.035 165.078 215.337 165.048 215.639C165.019 216.257 164.847 216.881 164.557 217.452C164.154 218.359 163.914 218.742 163.199 219.405C162.968 219.687 162.705 219.886 162.383 220.058ZM163.276 225.217C162.961 225.533 162.675 225.861 162.343 226.134C161.355 227.095 160.367 228.057 159.379 229.018C158.668 229.752 157.94 230.444 157.199 231.165C156.91 231.422 156.666 231.734 156.481 232.072C156.377 232.306 156.256 232.497 156.078 232.663C155.951 232.712 155.808 232.718 155.691 232.666C155.444 232.592 155.239 232.501 155.018 232.367C154.388 232.052 153.703 231.782 153.059 231.496C152.9 231.46 152.754 231.395 152.65 231.314C152.546 231.233 152.455 231.122 152.517 230.905C152.848 230.632 153.164 230.317 153.541 230.099C153.807 229.972 154.041 229.761 154.246 229.537C154.834 228.923 155.425 228.381 156.03 227.809L157.154 226.698C157.84 226.022 158.526 225.347 159.198 224.7C159.39 224.505 159.582 224.31 159.803 224.128L160.953 222.959C161.749 222.192 162.532 221.455 163.329 220.688C163.712 220.298 164.095 219.909 164.479 219.519C165.028 218.993 165.607 218.479 166.127 217.94C166.676 217.414 167.196 216.874 167.732 216.377C168.005 216.079 168.294 215.822 168.554 215.552C168.993 215.117 168.993 215.117 169.198 214.578C169.266 214.503 169.35 214.471 169.438 214.51C169.581 214.503 169.727 214.568 169.886 214.604C170.572 214.874 171.244 215.173 171.891 215.53C172.112 215.663 172.333 215.797 172.583 215.943C172.671 215.982 172.687 216.024 172.768 216.235C172.755 216.265 172.742 216.294 172.742 216.294C172.18 216.534 171.754 216.94 171.358 217.359C170.37 218.321 169.395 219.253 168.449 220.199C167.666 220.936 166.925 221.657 166.184 222.378C165.226 223.353 164.251 224.285 163.276 225.217ZM160.194 214.742C159.882 215.128 159.703 215.609 159.684 216.126C159.671 216.47 159.794 216.98 160.145 217.136C160.467 217.279 160.944 217.072 161.191 216.831C161.412 216.649 161.601 216.383 161.689 216.107C161.861 215.798 161.916 215.437 161.929 215.093C161.926 214.706 161.712 214.401 161.39 214.258C161.055 214.144 160.701 214.232 160.467 214.443C160.454 214.472 160.412 214.488 160.399 214.518L160.263 214.667C160.25 214.696 160.207 214.713 160.194 214.742ZM168.964 230.619C168.941 231.694 168.57 232.685 168.07 233.653C167.992 233.828 167.855 233.978 167.719 234.127C167.287 234.706 166.698 235.32 166.039 235.622C164.892 236.232 163.8 236.482 162.543 235.923C161.022 235.247 160.152 233.424 160.266 231.829C160.308 231.497 160.321 231.153 160.377 230.792C160.399 230.662 160.422 230.533 160.474 230.416C160.575 230.11 160.705 229.818 160.809 229.584C160.9 229.379 160.994 229.246 161.046 229.129C161.225 228.648 161.521 228.219 161.878 227.888C162.837 226.913 163.37 226.345 164.835 226.121C165.703 225.981 166.586 226.199 167.34 226.71C167.665 226.924 167.935 227.184 168.178 227.503C168.747 228.351 169.078 229.338 168.98 230.346C168.97 230.446 168.944 230.505 168.964 230.619ZM165.084 232.255C165.536 231.791 165.809 231.177 165.793 230.504C165.799 230.332 165.734 230.163 165.627 230.01C165.611 229.968 165.582 229.955 165.553 229.942L165.387 229.763C165.358 229.75 165.341 229.708 165.312 229.695C165.124 229.646 164.922 229.627 164.724 229.679C164.597 229.727 164.471 229.776 164.36 229.867C163.866 230.348 163.548 230.907 163.538 231.638C163.541 232.024 163.658 232.392 164.067 232.574C164.473 232.684 164.795 232.512 165.084 232.255Z" fill="white"/>
<mask id="path-7-inside-4_30_192" fill="white">
<path d="M321.614 315.615C306.378 331.603 287.801 344.03 267.208 352.01C246.616 359.989 224.515 363.324 202.485 361.776L213 212.114L321.614 315.615Z"/>
</mask>
<path d="M321.614 315.615C306.378 331.603 287.801 344.03 267.208 352.01C246.616 359.989 224.515 363.324 202.485 361.776L213 212.114L321.614 315.615Z" fill="white" stroke="black" stroke-width="2.50052" mask="url(#path-7-inside-4_30_192)"/>
<path d="M224.11 307.619C224.136 307.876 224.178 308.174 224.233 308.444C224.168 308.59 224.084 308.623 223.983 308.613C223.853 308.59 223.723 308.568 223.606 308.516C223.272 308.402 222.963 308.229 222.641 308.086L218.694 306.331C218.619 306.263 218.574 306.208 218.493 305.997C218.821 305.652 219.289 305.545 219.737 305.009C220.059 304.522 220.322 304.008 220.527 303.469C220.67 303.147 220.813 302.826 220.956 302.504L221.831 300.617C221.974 300.295 222.117 299.973 222.26 299.652C222.338 299.476 222.403 299.33 222.481 299.155L222.88 298.177C222.958 298.001 223.036 297.826 223.102 297.68C223.167 297.533 223.232 297.387 223.297 297.241L223.716 296.377C223.781 296.231 223.846 296.084 223.911 295.938C224.431 294.769 224.964 293.57 225.497 292.371C225.536 292.283 225.575 292.196 225.543 292.111L225.455 292.072C225.084 292.118 224.782 292.088 224.464 292.017C223.973 291.939 223.531 291.672 223.226 291.256C222.866 290.886 222.615 290.424 222.463 289.901C222.271 289.151 222.457 288.498 222.931 287.903C223.025 287.77 223.181 287.734 223.311 287.757L223.714 288.111C223.873 288.147 224.062 288.196 224.237 288.274C224.923 288.544 226.326 288.222 226.905 287.709L227.62 287.046L227.889 286.676C227.928 286.588 227.997 286.513 228.065 286.439C228.221 286.403 228.422 286.422 228.598 286.5C228.949 286.657 229.27 286.8 229.621 286.956C230.16 287.16 230.716 287.407 231.229 287.671C231.421 287.791 231.668 287.866 231.873 287.957C231.931 287.983 231.96 287.996 231.977 288.038L232.24 288.155C232.256 288.197 232.314 288.223 232.331 288.265L232.321 288.366C232.308 288.395 232.308 288.395 232.295 288.425C231.996 289.097 231.71 289.74 231.352 290.387C231.06 290.887 230.855 291.427 230.608 291.982C230.036 293.269 229.464 294.555 228.879 295.871C228.554 296.602 228.287 297.359 227.904 298.064C227.891 298.093 227.878 298.122 227.865 298.152L227.816 298.34C227.803 298.369 227.79 298.399 227.777 298.428C227.689 298.704 227.572 298.967 227.426 299.217C227.228 299.584 227.029 299.952 226.889 300.345C226.763 300.709 226.577 301.046 226.421 301.397C226.249 301.706 226.135 302.041 226.022 302.375C225.96 302.593 225.856 302.827 225.765 303.031C225.388 303.879 225.024 304.698 224.647 305.546C224.608 305.634 224.569 305.721 224.53 305.809L224.312 306.378C224.273 306.465 224.234 306.553 224.195 306.641C224.094 306.946 224.052 307.278 224.11 307.619ZM238.33 311.771C238.096 312.297 237.934 312.82 237.8 313.356C237.846 313.727 237.908 314.139 237.969 314.552C237.933 314.711 237.807 314.76 237.648 314.724C237.518 314.701 237.401 314.649 237.284 314.597C236.991 314.467 236.699 314.337 236.406 314.207C235.149 313.648 233.892 313.089 232.635 312.53C232.501 312.436 232.41 312.325 232.446 312.166C232.748 311.88 233.2 311.731 233.61 311.283C234.029 310.734 234.338 309.96 234.646 309.187C234.656 309.086 234.565 308.976 234.477 308.937C232.122 307.854 229.737 306.759 227.369 305.706L227.281 305.352C227.74 304.4 228.185 303.477 228.614 302.512C228.835 302.33 229.056 302.148 229.277 301.967L231.721 299.936C232.231 299.498 232.783 299.043 233.306 298.575C233.748 298.211 234.19 297.848 234.603 297.471C234.743 297.393 234.866 297.273 235.019 297.165C235.822 296.542 236.608 295.876 237.365 295.197C237.476 295.106 237.586 295.015 237.684 294.953C237.947 294.755 238.21 294.557 238.444 294.346C238.499 294.3 238.555 294.255 238.61 294.209L239.013 293.933C239.068 293.888 239.123 293.842 239.178 293.797C239.276 293.735 239.344 293.66 239.455 293.569L239.981 293.173C240.092 293.082 240.189 293.021 240.257 292.946C240.313 292.9 240.368 292.855 240.41 292.839L240.712 292.553C240.754 292.537 240.81 292.491 240.865 292.446C240.878 292.416 240.92 292.4 240.92 292.4L241.044 292.28C241.057 292.251 241.086 292.264 241.099 292.234C241.229 292.257 241.33 292.267 241.43 292.277C242.116 292.547 242.831 292.829 243.503 293.128C243.955 293.294 244.423 293.502 244.877 293.739C244.936 293.765 245.024 293.804 245.082 293.83L245.478 294.042C245.537 294.068 245.625 294.107 245.683 294.133C245.771 294.172 245.816 294.227 245.862 294.282C245.943 294.493 243.983 298.98 243.723 299.565C243.021 301.144 242.319 302.723 241.617 304.302C241.526 304.506 241.435 304.711 241.344 304.916L240.827 306.157C240.736 306.361 240.645 306.566 240.554 306.771L238.33 311.771ZM236.33 305.243C236.372 305.227 236.428 305.181 236.454 305.123C237.292 303.394 238.03 301.656 238.81 299.902C238.862 299.785 238.914 299.668 238.963 299.48C238.878 299.512 238.778 299.502 238.765 299.531C238.281 299.912 237.839 300.275 237.384 300.668L236.708 301.243C236.211 301.653 235.759 302.117 235.275 302.497C234.735 302.923 234.3 303.43 233.715 303.8C233.715 303.8 233.702 303.829 233.66 303.845C233.621 303.933 233.565 303.979 233.643 304.118C233.803 304.154 233.949 304.219 234.095 304.284C234.566 304.564 235.06 304.713 235.515 304.95C235.719 305.041 235.911 305.162 236.129 305.223C236.187 305.249 236.259 305.246 236.33 305.243ZM253.268 306.436C252.196 307.115 250.763 307.423 249.593 306.903C248.54 306.435 248.001 305.6 247.553 304.56C247.485 304.32 247.417 304.079 247.378 303.852C247.277 303.527 247.261 303.169 247.303 302.838C247.329 302.464 247.355 302.091 247.411 301.73C247.404 301.587 247.456 301.47 247.479 301.34C247.723 300.713 247.983 300.128 248.301 299.569C248.434 299.349 248.597 299.141 248.789 298.946C249.799 297.854 250.498 297.149 252.097 297.02C252.867 296.942 253.679 297.163 254.316 297.621C254.67 297.849 254.969 298.122 255.212 298.44C255.735 299.233 256.021 300.165 256.021 301.111C255.992 301.413 255.962 301.715 255.933 302.017C255.904 302.635 255.731 303.259 255.442 303.83C255.039 304.737 254.798 305.12 254.083 305.783C253.853 306.065 253.59 306.264 253.268 306.436ZM254.16 311.595C253.845 311.911 253.559 312.239 253.228 312.512C252.24 313.473 251.252 314.435 250.264 315.396C249.552 316.13 248.824 316.822 248.083 317.544C247.794 317.8 247.551 318.112 247.365 318.45C247.261 318.684 247.141 318.875 246.962 319.041C246.836 319.09 246.693 319.096 246.576 319.044C246.329 318.97 246.124 318.879 245.903 318.745C245.273 318.43 244.587 318.16 243.944 317.874C243.785 317.838 243.639 317.773 243.535 317.692C243.431 317.611 243.34 317.5 243.402 317.283C243.733 317.01 244.048 316.695 244.425 316.477C244.692 316.35 244.926 316.139 245.13 315.915C245.719 315.301 246.31 314.759 246.914 314.187L248.039 313.076C248.724 312.4 249.41 311.725 250.083 311.078C250.275 310.883 250.466 310.688 250.687 310.506L251.838 309.337C252.634 308.57 253.417 307.833 254.213 307.066C254.597 306.676 254.98 306.287 255.364 305.897C255.913 305.371 256.491 304.857 257.011 304.318C257.56 303.792 258.08 303.253 258.617 302.755C258.89 302.457 259.179 302.2 259.439 301.93C259.877 301.495 259.877 301.495 260.082 300.956C260.15 300.881 260.235 300.849 260.323 300.888C260.466 300.881 260.612 300.946 260.771 300.982C261.457 301.252 262.129 301.551 262.776 301.908C262.996 302.041 263.217 302.175 263.468 302.321C263.555 302.36 263.572 302.402 263.653 302.613C263.64 302.643 263.627 302.672 263.627 302.672C263.065 302.912 262.639 303.318 262.242 303.737C261.254 304.699 260.28 305.631 259.334 306.577C258.551 307.314 257.81 308.035 257.069 308.756C256.11 309.731 255.135 310.663 254.16 311.595ZM251.079 301.12C250.767 301.506 250.588 301.987 250.569 302.504C250.555 302.848 250.679 303.358 251.03 303.514C251.351 303.657 251.829 303.45 252.076 303.209C252.297 303.027 252.485 302.761 252.573 302.485C252.746 302.176 252.801 301.815 252.814 301.471C252.811 301.084 252.596 300.779 252.275 300.636C251.94 300.522 251.586 300.61 251.352 300.821C251.339 300.85 251.297 300.866 251.284 300.896L251.147 301.045C251.134 301.074 251.092 301.091 251.079 301.12ZM259.849 316.997C259.826 318.072 259.455 319.063 258.955 320.031C258.877 320.206 258.74 320.356 258.604 320.505C258.171 321.084 257.583 321.698 256.923 322C255.776 322.61 254.685 322.86 253.427 322.301C251.907 321.625 251.037 319.802 251.151 318.207C251.193 317.875 251.206 317.531 251.261 317.17C251.284 317.04 251.307 316.911 251.359 316.794C251.459 316.488 251.59 316.196 251.694 315.962C251.785 315.757 251.879 315.624 251.931 315.507C252.11 315.026 252.405 314.597 252.763 314.266C253.721 313.291 254.254 312.723 255.72 312.499C256.587 312.359 257.471 312.577 258.225 313.088C258.55 313.302 258.819 313.562 259.063 313.881C259.631 314.729 259.963 315.716 259.865 316.724C259.855 316.824 259.829 316.883 259.849 316.997ZM255.969 318.633C256.421 318.169 256.694 317.555 256.677 316.882C256.684 316.71 256.619 316.541 256.512 316.388C256.496 316.346 256.466 316.333 256.437 316.32L256.271 316.141C256.242 316.128 256.226 316.086 256.197 316.073C256.008 316.024 255.807 316.005 255.609 316.057C255.482 316.106 255.355 316.154 255.245 316.245C254.751 316.726 254.432 317.285 254.422 318.016C254.426 318.402 254.542 318.77 254.952 318.952C255.358 319.062 255.68 318.89 255.969 318.633Z" fill="black"/>
</svg>
