<svg width="32" height="32" viewBox="0 0 32 32" fill="none" xmlns="http://www.w3.org/2000/svg">
<path d="M16.167 2.66667V12.4826C16.167 12.5243 16.1254 12.5659 16.0837 12.5659C15.792 12.6933 15.542 12.8195 15.2503 12.9457C14.8753 13.1136 14.4586 13.2826 14.0836 13.4933L12.7085 14.1243L11.5835 14.6303L10.2084 15.2625C9.83342 15.4315 9.4584 15.5994 9.04171 15.8101C8.75003 15.9363 8.41669 16.1054 8.12501 16.2316C8.08334 16.2316 8.08334 16.2732 8.04167 16.2316H8C8.12501 16.0208 8.25001 15.8518 8.37502 15.6422C9.04171 14.5041 9.75008 13.3671 10.4168 12.229C11.1251 11.0087 11.8752 9.78603 12.5835 8.56455C13.2502 7.42759 13.9169 6.29064 14.5836 5.19535C15.0837 4.35127 15.5837 3.55242 16.042 2.70833C16.1254 2.70833 16.1254 2.66667 16.167 2.66667C16.167 2.66667 16.1254 2.66667 16.167 2.66667Z" fill="#8C8C8C"/>
<path d="M24.2507 16.2316C23.6257 16.653 22.959 17.0316 22.334 17.4102C20.2922 18.6329 18.2921 19.8127 16.2504 21.0342C16.2087 21.0342 16.2087 21.0759 16.167 21.0759C16.1254 21.0759 16.1254 21.0342 16.1254 21.0342V12.566C16.1254 12.5243 16.167 12.5243 16.2087 12.5243C16.3754 12.6076 16.5421 12.6933 16.7504 12.7767C17.2504 13.0303 17.7921 13.241 18.2921 13.4934C18.7505 13.7041 19.1672 13.9148 19.6255 14.0827C20.0839 14.2934 20.5006 14.5041 20.9589 14.7149C21.3339 14.8839 21.7506 15.0518 22.1256 15.2625C22.5007 15.4316 22.9173 15.5994 23.2924 15.8101C23.584 15.9363 23.8757 16.1054 24.2091 16.2316C24.2091 16.1899 24.2091 16.2316 24.2507 16.2316Z" fill="#141414"/>
<path d="M16.1671 29.3334C16.1254 29.3334 16.1671 29.3334 16.1671 29.3334C16.1254 29.3334 16.1254 29.3334 16.0838 29.2905C15.2504 28.1119 14.4587 26.9737 13.6253 25.7939L11.1252 22.2557C10.3335 21.1187 9.50015 19.9817 8.70844 18.8007L8.08342 17.9162C8.08342 17.8745 8.04175 17.8745 8.04175 17.8328C8.08342 17.8328 8.08342 17.8745 8.12509 17.8745C9.25014 18.5484 10.4169 19.2222 11.5419 19.896C12.8336 20.6973 14.167 21.4556 15.4587 22.2557C15.6671 22.3819 15.9171 22.5081 16.1254 22.6342C16.1671 22.6342 16.1671 22.6771 16.1671 22.7188V29.3334Z" fill="#8C8C8C"/>
<path d="M8 15.7906C8 15.749 8 15.749 8 15.7906C8.41669 15.5799 8.83337 15.4121 9.25006 15.2013L10.8751 14.443C11.2918 14.2322 11.7085 14.0644 12.1252 13.8537C12.7085 13.5584 13.3336 13.306 13.9169 13.0108C14.3336 12.8417 14.7503 12.631 15.167 12.4631C15.4587 12.3369 15.7503 12.2107 16.042 12.0417C16.0837 12.0417 16.0837 12 16.1254 12V20.5932C16.0837 20.6361 16.0837 20.5932 16.042 20.5932C15.917 20.5099 15.792 20.467 15.7087 20.3825L8.08334 15.8335C8.04167 15.7906 8 15.7906 8 15.7906ZM24.1257 17.3502C24.1257 17.3919 24.1257 17.3919 24.0841 17.4336C21.6673 20.8885 19.2505 24.3005 16.8337 27.7555C16.5837 28.1341 16.3337 28.471 16.0837 28.8508V22.1516C16.6254 21.8147 17.1671 21.4778 17.7088 21.1837L24.0841 17.3919C24.0841 17.3502 24.1257 17.3502 24.1257 17.3502Z" fill="#3C3C3B"/>
<path d="M16.167 12.5242V2.71071L24.1674 16.1065C24.209 16.1482 24.2507 16.1899 24.2507 16.2327C24.084 16.1494 23.9173 16.0637 23.709 15.9803C23.5007 15.8958 23.2923 15.7696 23.084 15.6851C22.959 15.6434 22.834 15.5589 22.6673 15.516C22.4589 15.4327 22.2089 15.3053 22.0006 15.222C21.8756 15.1791 21.7506 15.0958 21.6256 15.0529L20.7505 14.6743C20.5839 14.5898 20.4589 14.5481 20.2922 14.4636C20.0838 14.3791 19.8755 14.2529 19.6671 14.1684C19.5421 14.1267 19.4171 14.0422 19.2921 14.0005L18.4171 13.6207C18.2504 13.5374 18.1254 13.4945 17.9587 13.41C17.7504 13.3267 17.5421 13.1993 17.3337 13.1147C17.2087 13.0314 17.042 12.9885 16.917 12.9052L16.167 12.5254V12.5242Z" fill="#343434"/>
</svg>
