<svg width="136" height="40" viewBox="0 0 136 40" fill="none" xmlns="http://www.w3.org/2000/svg">
<path fill-rule="evenodd" clip-rule="evenodd" d="M0 11.2334V29.8634L5.39418 32.973V19.6461L10.7691 22.7505V36.0687L16.165 39.1784V20.5466L0 11.2334Z" fill="#2AC98B"/>
<path fill-rule="evenodd" clip-rule="evenodd" d="M12.253 9.52873L17.6577 6.36125L24.3728 10.2908L18.9716 13.4443L12.253 9.52873ZM17.6647 0L1.37177 9.53224L18.9418 19.8336V40L24.2712 36.8956V16.4944L29.6566 13.3409V33.7246L35.0648 30.5413V10.1804L17.6647 0Z" fill="#2AC98B"/>
<path fill-rule="evenodd" clip-rule="evenodd" d="M58.8017 24.0137L58.7001 24.0294L48.665 8.40399H43.9051V31.596H48.665V15.9706L48.7684 15.9548L58.8017 31.596H63.5669V8.40399H58.8017V24.0137Z" fill="#323A38"/>
<path fill-rule="evenodd" clip-rule="evenodd" d="M120.037 21.8168C120.037 17.2127 116.396 13.446 111.948 13.446H111.487C107.039 13.446 103.399 17.2127 103.399 21.8168V23.2183C103.399 27.8224 107.039 31.589 111.487 31.589H111.948C116.396 31.589 120.037 27.8224 120.037 23.2183V21.8168ZM111.871 26.561C110.012 26.6363 108.43 25.1226 108.357 23.199L108.316 22.1181C108.243 20.191 109.706 18.5564 111.564 18.4811C113.423 18.4057 115.005 19.9194 115.079 21.843L115.119 22.924C115.193 24.8476 113.732 26.4839 111.871 26.561Z" fill="#323A38"/>
<path fill-rule="evenodd" clip-rule="evenodd" d="M77.1584 14.068C76.1934 13.6573 75.1553 13.4458 74.1066 13.446H73.6511C69.2029 13.446 65.5624 17.2127 65.5624 21.8168V23.2183C65.5624 27.8224 69.2029 31.589 73.6511 31.589H74.1066C75.1542 31.5888 76.191 31.3773 77.1549 30.9671V31.589H82.1952V13.446H77.1584V14.068ZM74.0347 26.554C72.1759 26.631 70.5974 25.1191 70.5309 23.1973L70.4906 22.1181C70.417 20.191 71.8781 18.5617 73.7351 18.4863C75.389 18.4198 76.8203 19.6128 77.1654 21.2316V23.9874C76.985 24.6929 76.5841 25.3223 76.0209 25.784C75.4578 26.2457 74.7619 26.5154 74.0347 26.554Z" fill="#323A38"/>
<path fill-rule="evenodd" clip-rule="evenodd" d="M94.0154 13.446H93.5529C92.4666 13.4462 91.3923 13.6742 90.3995 14.1153V8.40924H85.3574V31.596H90.3995V30.9268C91.3923 31.3678 92.4666 31.5958 93.5529 31.596H94.0119C98.4618 31.596 102.102 27.8294 102.102 23.2253V21.8237C102.106 17.2127 98.4583 13.446 94.0154 13.446ZM97.1426 23.1973C97.0691 25.1244 95.4906 26.631 93.6388 26.554C91.9131 26.4839 90.5326 25.0683 90.403 23.3269V22.6822L90.4363 21.8448C90.5081 19.9177 92.0866 18.411 93.9401 18.4863C95.7937 18.5617 97.2565 20.1962 97.1829 22.1181L97.1426 23.1973Z" fill="#323A38"/>
<path fill-rule="evenodd" clip-rule="evenodd" d="M135.909 13.446H130.957L127.591 18.6738L124.224 13.446H119.271L125.114 22.521L119.271 31.596H124.224L127.591 26.3665L130.957 31.596H135.909L130.067 22.521L135.909 13.446Z" fill="#323A38"/>
</svg>
