<svg width="137" height="47" viewBox="0 0 137 47" fill="none" xmlns="http://www.w3.org/2000/svg">
<path d="M0.5 10.583C0.5 3.91023 7.19868 -0.683238 13.4232 1.72122L30.9371 8.48661C32.1441 8.95284 33.4268 9.19197 34.7206 9.19197H64.3437H100.882C102.128 9.19197 103.364 8.97014 104.532 8.53684L123.598 1.46655C129.804 -0.834593 136.401 3.7556 136.401 10.3738V36.8974C136.401 43.2012 130.374 47.7569 124.31 46.037L104.15 40.3202C103.218 40.056 102.254 39.9219 101.286 39.9219H64.3437H34.3024C33.2954 39.9219 32.2936 40.0668 31.3278 40.3521L12.6913 45.8572C6.60437 47.6553 0.5 43.0933 0.5 36.7464V10.583Z" fill="white" stroke="black"/>
</svg>
