<svg width="32" height="32" viewBox="0 0 32 32" fill="none" xmlns="http://www.w3.org/2000/svg">
<path d="M22.1107 11.885C21.6678 11.624 21.0922 11.624 20.6052 11.885L17.1513 13.8858L14.8044 15.1907L11.3505 17.1915C10.9077 17.4524 10.3321 17.4524 9.84502 17.1915L7.09963 15.6256C6.65682 15.3646 6.34686 14.8862 6.34686 14.3642V11.276C6.34686 10.7541 6.61255 10.2756 7.09963 10.0147L9.80073 8.49232C10.2435 8.23135 10.8192 8.23135 11.3063 8.49232L14.0074 10.0147C14.4502 10.2756 14.7601 10.7541 14.7601 11.276V13.2769L17.107 11.9285V9.92768C17.107 9.40573 16.8414 8.92728 16.3542 8.6663L11.3505 5.79558C10.9077 5.53461 10.3321 5.53461 9.84502 5.79558L4.75277 8.6663C4.26568 8.92728 4 9.40573 4 9.92768V15.7126C4 16.2346 4.26568 16.7131 4.75277 16.974L9.84502 19.8447C10.2878 20.1057 10.8635 20.1057 11.3505 19.8447L14.8044 17.8874L17.1513 16.539L20.6052 14.5817C21.048 14.3208 21.6236 14.3208 22.1107 14.5817L24.8118 16.1041C25.2545 16.365 25.5645 16.8435 25.5645 17.3655V20.4536C25.5645 20.9756 25.2989 21.454 24.8118 21.715L22.1107 23.2809C21.6678 23.5419 21.0922 23.5419 20.6052 23.2809L17.9041 21.7585C17.4612 21.4976 17.1513 21.0191 17.1513 20.4971V18.4964L14.8044 19.8447V21.8455C14.8044 22.3674 15.0701 22.8459 15.5571 23.1069L20.6494 25.9776C21.0922 26.2386 21.6678 26.2386 22.1549 25.9776L27.2472 23.1069C27.69 22.8459 28 22.3674 28 21.8455V16.0605C28 15.5386 27.7343 15.0602 27.2472 14.7992L22.1107 11.885Z" fill="#8247E5"/>
</svg>
