<svg width="32" height="32" viewBox="0 0 32 32" fill="none" xmlns="http://www.w3.org/2000/svg">
<path d="M7.90033 20.4075C8.04719 20.267 8.24629 20.1882 8.45389 20.1882H27.6077C27.9566 20.1882 28.1312 20.592 27.8844 20.828L24.0997 24.4473C23.9528 24.5877 23.7537 24.6666 23.5461 24.6666H4.39234C4.04344 24.6666 3.86877 24.2628 4.11556 24.0268L7.90033 20.4075Z" fill="url(#paint0_linear_288_271)"/>
<path d="M7.90033 6.88596C8.04717 6.74551 8.24628 6.66662 8.45389 6.66663H27.6077C27.9566 6.66663 28.1312 7.07043 27.8844 7.30649L24.0997 10.9258C23.9528 11.0662 23.7537 11.1451 23.5461 11.1451H4.39234C4.04344 11.1451 3.86877 10.7413 4.11556 10.5053L7.90033 6.88596Z" fill="url(#paint1_linear_288_271)"/>
<path d="M24.0997 13.6036C23.9528 13.4632 23.7537 13.3843 23.5461 13.3843H4.39234C4.04344 13.3843 3.86877 13.7882 4.11556 14.0242L7.90033 17.6435C8.04717 17.7839 8.24628 17.8628 8.45389 17.8628H27.6077C27.9566 17.8628 28.1312 17.459 27.8844 17.2229L24.0997 13.6036Z" fill="url(#paint2_linear_288_271)"/>
<defs>
<linearGradient id="paint0_linear_288_271" x1="20.2254" y1="1.72916" x2="7.861" y2="26.4748" gradientUnits="userSpaceOnUse">
<stop stop-color="#00FFA3"/>
<stop offset="1" stop-color="#DC1FFF"/>
</linearGradient>
<linearGradient id="paint1_linear_288_271" x1="20.2254" y1="1.72916" x2="7.861" y2="26.4748" gradientUnits="userSpaceOnUse">
<stop stop-color="#00FFA3"/>
<stop offset="1" stop-color="#DC1FFF"/>
</linearGradient>
<linearGradient id="paint2_linear_288_271" x1="20.2254" y1="1.72916" x2="7.861" y2="26.4748" gradientUnits="userSpaceOnUse">
<stop stop-color="#00FFA3"/>
<stop offset="1" stop-color="#DC1FFF"/>
</linearGradient>
</defs>
</svg>
