<svg width="227" height="40" viewBox="0 0 227 40" fill="none" xmlns="http://www.w3.org/2000/svg">
<g clip-path="url(#clip0_21_23)">
<path d="M66.6188 14.6971H59.9193V31.7668H55.086V14.6971H48.4172V10.0779H66.6188V14.6971Z" fill="#1C2642"/>
<path d="M68.3345 22.3448H74.422C74.3813 21.6515 74.1059 21.0499 73.5961 20.54C73.1067 20.0301 72.3622 19.7752 71.363 19.7752C70.4656 19.7752 69.7519 20.0403 69.2216 20.5705C68.6913 21.1008 68.3956 21.6922 68.3345 22.3448ZM74.7586 26.291L78.6435 27.3923C78.2561 28.7995 77.4506 29.962 76.2269 30.8797C75.0032 31.777 73.4737 32.2256 71.6382 32.2256C69.4358 32.2256 67.5595 31.4915 66.0096 30.0232C64.4801 28.5547 63.7152 26.5867 63.7152 24.119C63.7152 21.7534 64.4596 19.8262 65.9484 18.3374C67.4575 16.8487 69.242 16.1043 71.3018 16.1043C73.6674 16.1043 75.5233 16.7977 76.8693 18.1844C78.2356 19.5508 78.9189 21.4576 78.9189 23.905C78.9189 24.6799 78.8883 25.1592 78.8271 25.3427H68.2427C68.2834 26.1788 68.6404 26.8825 69.3134 27.4535C69.9863 28.0041 70.7817 28.2795 71.6994 28.2795C73.2698 28.2795 74.2895 27.6167 74.7586 26.291Z" fill="#1C2642"/>
<path d="M87.3802 20.387C86.3809 20.387 85.5447 20.7235 84.8717 21.3966C84.2191 22.0695 83.8928 22.9974 83.8928 24.1802C83.8928 25.3427 84.2293 26.2604 84.9023 26.9334C85.5957 27.6064 86.4421 27.9429 87.4413 27.9429C88.2774 27.9429 88.9607 27.7288 89.491 27.3006C90.0416 26.8519 90.4087 26.3115 90.5922 25.6793L94.6914 26.9334C94.3243 28.3814 93.4983 29.6254 92.2136 30.6655C90.9491 31.7056 89.3583 32.2256 87.4413 32.2256C85.1572 32.2256 83.2198 31.471 81.6291 29.962C80.0588 28.4323 79.2736 26.5052 79.2736 24.1802C79.2736 21.8349 80.0384 19.9078 81.5679 18.3986C83.1179 16.8691 85.0247 16.1043 87.2884 16.1043C89.2666 16.1043 90.8879 16.6142 92.1524 17.6339C93.4167 18.6535 94.2325 19.9078 94.5996 21.3966L90.4393 22.6507C90.2557 21.9981 89.909 21.4576 89.3992 21.0294C88.8893 20.6011 88.2163 20.387 87.3802 20.387Z" fill="#1C2642"/>
<path d="M100.643 22.8343V31.7668H95.9929V9.61905H100.643V17.5421C101.56 16.6243 102.855 16.1655 104.528 16.1655C106.424 16.1655 107.852 16.7365 108.81 17.8786C109.79 19.0002 110.279 20.4482 110.279 22.2225V31.7668H105.629V23.0178C105.629 22.2225 105.415 21.5903 104.987 21.1212C104.579 20.6317 103.967 20.387 103.151 20.387C102.437 20.387 101.846 20.6215 101.377 21.0906C100.928 21.5392 100.684 22.1204 100.643 22.8343Z" fill="#1C2642"/>
<path d="M119.632 27.9429C120.59 27.9429 121.395 27.6167 122.048 26.964C122.72 26.3115 123.058 25.3733 123.058 24.1496C123.058 22.9261 122.72 21.9981 122.048 21.366C121.395 20.7133 120.59 20.387 119.632 20.387C118.693 20.387 117.888 20.7133 117.214 21.366C116.542 22.0185 116.205 22.9464 116.205 24.1496C116.205 25.3529 116.542 26.291 117.214 26.964C117.888 27.6167 118.693 27.9429 119.632 27.9429ZM119.632 16.1043C121.935 16.1043 123.852 16.8588 125.382 18.368C126.932 19.8772 127.707 21.8043 127.707 24.1496C127.707 26.4949 126.932 28.4323 125.382 29.962C123.852 31.471 121.935 32.2256 119.632 32.2256C117.347 32.2256 115.43 31.4609 113.88 29.9314C112.33 28.4017 111.555 26.4746 111.555 24.1496C111.555 21.8248 112.33 19.9078 113.88 18.3986C115.43 16.8691 117.347 16.1043 119.632 16.1043Z" fill="#1C2642"/>
<path d="M133.821 37.579H129.171V16.5631H133.667V18.1232C134.014 17.5931 134.585 17.1443 135.381 16.7773C136.196 16.3898 137.114 16.1961 138.133 16.1961C140.295 16.1961 142.009 16.9404 143.273 18.4292C144.558 19.8975 145.2 21.7942 145.2 24.119C145.2 26.444 144.517 28.361 143.151 29.8702C141.805 31.3589 140.072 32.1032 137.951 32.1032C136.033 32.1032 134.657 31.5934 133.821 30.5737V37.579ZM139.633 26.964C140.306 26.291 140.642 25.3529 140.642 24.1496C140.642 22.9464 140.306 22.0185 139.633 21.3659C138.98 20.7133 138.165 20.387 137.185 20.387C136.227 20.387 135.411 20.7133 134.739 21.3659C134.086 22.0185 133.759 22.9464 133.759 24.1496C133.759 25.3529 134.086 26.291 134.739 26.964C135.411 27.6166 136.227 27.9429 137.185 27.9429C138.165 27.9429 138.98 27.6166 139.633 26.964Z" fill="#1C2642"/>
<path d="M150.188 22.3448H156.276C156.236 21.6515 155.96 21.0499 155.45 20.54C154.961 20.0301 154.217 19.7752 153.218 19.7752C152.32 19.7752 151.606 20.0403 151.076 20.5705C150.545 21.1008 150.25 21.6922 150.188 22.3448ZM156.613 26.291L160.498 27.3923C160.111 28.7995 159.305 29.962 158.081 30.8797C156.858 31.777 155.328 32.2256 153.492 32.2256C151.29 32.2256 149.413 31.4915 147.864 30.0232C146.334 28.5547 145.569 26.5867 145.569 24.119C145.569 21.7534 146.314 19.8262 147.802 18.3374C149.312 16.8487 151.097 16.1043 153.156 16.1043C155.521 16.1043 157.378 16.7977 158.724 18.1844C160.09 19.5508 160.773 21.4576 160.773 23.905C160.773 24.6799 160.743 25.1592 160.681 25.3427H150.097C150.138 26.1788 150.494 26.8825 151.168 27.4535C151.84 28.0041 152.636 28.2795 153.554 28.2795C155.124 28.2795 156.144 27.6167 156.613 26.291Z" fill="#1C2642"/>
<path d="M177.188 9.61905V29.0442C177.188 29.9619 177.228 30.8694 177.311 31.7668H172.844C172.763 31.2773 172.721 30.7879 172.721 30.2984C172.355 30.8286 171.804 31.2671 171.07 31.6138C170.356 31.9401 169.551 32.1032 168.653 32.1032C166.491 32.1032 164.697 31.3589 163.27 29.8702C161.841 28.361 161.128 26.444 161.128 24.119C161.128 21.8349 161.821 19.9485 163.208 18.4598C164.595 16.9506 166.359 16.1961 168.5 16.1961C170.581 16.1961 171.946 16.7161 172.599 17.7562V9.61905H177.188ZM166.787 21.3659C166.134 22.0185 165.808 22.9464 165.808 24.1496C165.808 25.3529 166.134 26.291 166.787 26.964C167.46 27.6166 168.276 27.9429 169.234 27.9429C170.193 27.9429 170.998 27.6166 171.651 26.964C172.324 26.291 172.661 25.3529 172.661 24.1496C172.661 22.9464 172.324 22.0185 171.651 21.3659C170.998 20.7133 170.193 20.387 169.234 20.387C168.276 20.387 167.46 20.7133 166.787 21.3659Z" fill="#1C2642"/>
<path d="M184.499 31.7668H179.849V16.5632H184.499V31.7668ZM180.247 13.8406C179.716 13.3104 179.451 12.6679 179.451 11.9133C179.451 11.1588 179.716 10.5164 180.247 9.98616C180.777 9.45592 181.409 9.1908 182.143 9.1908C182.898 9.1908 183.54 9.45592 184.071 9.98616C184.621 10.5164 184.897 11.1588 184.897 11.9133C184.897 12.6679 184.621 13.3104 184.071 13.8406C183.54 14.3708 182.898 14.6359 182.143 14.6359C181.409 14.6359 180.777 14.3708 180.247 13.8406Z" fill="#1C2642"/>
<path d="M186.125 27.5758C186.125 26.291 186.543 25.2611 187.379 24.4862C188.214 23.6908 189.295 23.1912 190.621 22.9873L194.2 22.4366C194.934 22.3346 195.302 21.9879 195.302 21.3966C195.302 20.9275 195.098 20.54 194.69 20.2341C194.302 19.9078 193.762 19.7446 193.068 19.7446C192.293 19.7446 191.672 19.969 191.202 20.4176C190.754 20.8459 190.51 21.366 190.468 21.9777L186.431 21.1518C186.532 19.8874 187.155 18.7352 188.297 17.695C189.459 16.6345 191.06 16.1043 193.099 16.1043C195.404 16.1043 197.097 16.6549 198.178 17.7562C199.278 18.8574 199.83 20.2647 199.83 21.9777V29.4113C199.83 30.3697 199.89 31.1549 200.012 31.7668H195.822C195.72 31.3589 195.668 30.7879 195.668 30.0537C194.792 31.4813 193.365 32.195 191.386 32.195C189.775 32.195 188.49 31.7464 187.532 30.8491C186.594 29.9314 186.125 28.8402 186.125 27.5758ZM192.518 28.8301C193.314 28.8301 193.977 28.5956 194.506 28.1265C195.037 27.6574 195.302 26.8825 195.302 25.8015V25.1286L192.426 25.5875C191.285 25.7709 190.713 26.3318 190.713 27.27C190.713 27.6982 190.855 28.0653 191.141 28.3712C191.447 28.6771 191.906 28.8301 192.518 28.8301Z" fill="#1C2642"/>
<path d="M26.4204 22.7716C26.4207 23.0356 26.4903 23.2949 26.6223 23.5236C26.7544 23.7521 26.9442 23.9419 27.1729 24.0739L31.9089 26.8078C32.1374 26.9396 32.3967 27.0089 32.6604 27.0087C32.9242 27.0086 33.1834 26.939 33.4117 26.8071C33.6401 26.6751 33.8299 26.4854 33.9616 26.2569C34.0935 26.0284 34.1629 25.7692 34.1629 25.5054V11.0965C34.1629 10.833 34.0936 10.5739 33.9619 10.3456C33.8301 10.1172 33.6404 9.92762 33.4121 9.79579L20.9336 2.59535C20.7052 2.46365 20.4462 2.39436 20.1825 2.39441C19.9189 2.39446 19.6599 2.46387 19.4315 2.59565C19.2031 2.72745 19.0134 2.91697 18.8815 3.14523C18.7495 3.37349 18.6799 3.63245 18.6797 3.89612V9.36539C18.6798 9.62921 18.7492 9.88837 18.881 10.1169C19.0128 10.3455 19.2022 10.5354 19.4305 10.6678L25.6681 14.2656C25.8967 14.3972 26.0864 14.5867 26.2182 14.8151C26.3501 15.0436 26.4193 15.3027 26.4189 15.5664L26.4204 22.7716Z" fill="#82A5FF"/>
<path d="M17.1732 20.9065V28.1117C17.1731 28.3756 17.2424 28.6348 17.3742 28.8635C17.5059 29.0921 17.6956 29.2819 17.924 29.4141L22.66 32.1479C22.8885 32.2797 23.1478 32.349 23.4116 32.3489C23.6754 32.3487 23.9345 32.2791 24.1629 32.1471C24.3914 32.0152 24.581 31.8254 24.7129 31.597C24.8446 31.3685 24.9141 31.1093 24.9141 30.8455V16.4367C24.9139 16.1727 24.8443 15.9133 24.7122 15.6848C24.5802 15.4561 24.3903 15.2663 24.1616 15.1343L11.6849 7.93067C11.4564 7.79847 11.1973 7.72876 10.9335 7.72858C10.6696 7.72838 10.4104 7.79772 10.1818 7.9296C9.95333 8.06148 9.76358 8.25125 9.63173 8.47979C9.49987 8.70834 9.43056 8.96759 9.43079 9.23144V14.7008C9.4304 14.9644 9.49962 15.2236 9.63146 15.452C9.76329 15.6803 9.95305 15.87 10.1816 16.0015L16.4224 19.6041C16.6507 19.7363 16.8403 19.9263 16.9721 20.1548C17.1039 20.3834 17.1732 20.6426 17.1732 20.9065Z" fill="#0077CC"/>
<path d="M14.9143 20.4744L2.43592 13.2756C2.20738 13.1438 1.94819 13.0745 1.68439 13.0746C1.42059 13.0747 1.16147 13.1442 0.933059 13.2762C0.704647 13.4082 0.51499 13.598 0.383135 13.8265C0.251279 14.0549 0.181871 14.3141 0.181885 14.5779V28.9883C0.181828 29.252 0.251186 29.511 0.382983 29.7394C0.514781 29.9677 0.704371 30.1573 0.932695 30.2891L8.67514 34.7526L13.4112 37.4864C13.6395 37.6186 13.8986 37.6883 14.1624 37.6885C14.4263 37.6887 14.6856 37.6194 14.9141 37.4875C15.1426 37.3556 15.3324 37.1659 15.4643 36.9373C15.596 36.7088 15.6653 36.4494 15.6651 36.1856V21.7768C15.665 21.513 15.5956 21.2537 15.4638 21.0252C15.332 20.7967 15.1425 20.6067 14.9143 20.4744Z" fill="#004ED6"/>
</g>
<defs>
<clipPath id="clip0_21_23">
<rect width="225.946" height="40" fill="white" transform="translate(0.181885)"/>
</clipPath>
</defs>
</svg>
